<svg id="Layer_1" height="512" viewBox="0 0 512 512" width="512" xmlns="http://www.w3.org/2000/svg" data-name="Layer 1"><path d="m165.32 436h30a17.225 17.225 0 0 1 -17.32-17.11v-.09a16.593 16.593 0 0 1 9.064-14.8h8.936v-47.37a89.037 89.037 0 0 1 59.805-84.13 21.557 21.557 0 0 0 10.507-7.84 21.417 21.417 0 0 0 -10.529-32.75 89.194 89.194 0 0 1 -53.483-50.97l.009.06h-.009a88.546 88.546 0 0 1 -6.3-33.21v-39.79h-8.936a16.593 16.593 0 0 1 -9.064-14.8v-.09a17.225 17.225 0 0 1 17.32-17.11h-30a17.225 17.225 0 0 0 -17.32 17.11v.09c0 9.5 7.82 16.8 17.32 16.8h1.68v37.79a89.056 89.056 0 0 0 6.325 33.15l-.009.037-.016-.037.01.06h.015a89.246 89.246 0 0 0 53.455 50.945 21.438 21.438 0 0 1 .025 40.559 89.032 89.032 0 0 0 -59.805 84.126v45.37h-1.68c-9.5 0-17.32 7.3-17.32 16.8v.09a17.225 17.225 0 0 0 17.32 17.11z" fill="#d4e1f4"/><g fill="#1ae5be"><path d="m78.516 433.484a251.014 251.014 0 0 0 337.146 16.2 6 6 0 0 0 -7.638-9.255 239 239 0 0 1 -326.781-347.459l10.965 10.964a6.583 6.583 0 0 0 11.13-3.468l7.53-41.094a6.583 6.583 0 0 0 -7.593-7.676l-41.475 7.15a6.583 6.583 0 0 0 -3.539 11.142l14.494 14.5a250.984 250.984 0 0 0 5.76 349zm19.151-368.644-4.267 23.31-19.26-19.25z"/><path d="m492.9 318.648a6 6 0 0 0 -7.437 4.086c-2.171 7.46-4.735 14.909-7.622 22.138a6 6 0 1 0 11.144 4.451c3.031-7.588 5.722-15.406 8-23.238a6 6 0 0 0 -4.085-7.437z"/><path d="m500.526 272.321a5.992 5.992 0 0 0 -6.526 5.426c-.71 7.734-1.815 15.531-3.283 23.175a6 6 0 1 0 11.785 2.263c1.541-8.027 2.7-16.217 3.448-24.34a6 6 0 0 0 -5.424-6.524z"/><path d="m240.327 17.493c.127 0 .255 0 .383-.012 7.74-.489 15.654-.607 23.407-.346a6 6 0 0 0 .4-11.993c-8.135-.271-16.441-.149-24.563.363a6 6 0 0 0 .372 11.988z"/><path d="m410.529 73.67c5.925 5.027 11.675 10.407 17.088 15.991a6 6 0 1 0 8.615-8.353c-5.683-5.862-11.719-11.511-17.94-16.788a6 6 0 1 0 -7.763 9.15z"/><path d="m331.094 29.034c7.375 2.439 14.716 5.276 21.821 8.431a6 6 0 0 0 4.871-10.965c-7.464-3.315-15.177-6.3-22.925-8.857a6 6 0 1 0 -3.767 11.393z"/><path d="m484.916 187.084c2.236 7.437 4.127 15.076 5.621 22.7a6 6 0 0 0 11.777-2.306c-1.57-8.015-3.557-16.04-5.906-23.854a6 6 0 1 0 -11.492 3.455z"/><path d="m467.577 144.736c3.626 6.88 6.949 14.016 9.877 21.208a6 6 0 1 0 11.114-4.524c-3.076-7.556-6.566-15.051-10.375-22.278a6 6 0 0 0 -10.616 5.594z"/><path d="m456.2 125.414a6 6 0 1 0 10.044-6.566c-4.462-6.827-9.318-13.518-14.432-19.887a6 6 0 0 0 -9.356 7.514c4.874 6.065 9.498 12.437 13.744 18.939z"/><path d="m372.957 47.523c6.769 3.806 13.435 7.995 19.811 12.452a6 6 0 0 0 6.875-9.835c-6.7-4.681-13.7-9.08-20.806-13.078a6 6 0 0 0 -5.88 10.461z"/><path d="m499.181 225.4a6 6 0 0 0 -5.374 6.566c.77 7.712 1.171 15.575 1.191 23.369a6 6 0 0 0 6 5.984h.017a6 6 0 0 0 5.985-6.014c-.021-8.18-.442-16.433-1.25-24.529a6 6 0 0 0 -6.569-5.376z"/><path d="m194 24.913a5.985 5.985 0 0 0 1.518-.2c7.511-1.959 15.216-3.567 22.9-4.78a6 6 0 1 0 -1.871-11.854c-8.072 1.275-16.166 2.965-24.058 5.023a6 6 0 0 0 1.511 11.811z"/><path d="m149.96 41.078a5.964 5.964 0 0 0 2.6-.6c7.008-3.37 14.261-6.427 21.559-9.089a6 6 0 0 0 -4.119-11.268c-7.667 2.8-15.287 6.008-22.648 9.548a6 6 0 0 0 2.6 11.409z"/><path d="m286.469 18.923c7.72.982 15.469 2.357 23.033 4.087a6 6 0 0 0 2.674-11.7c-7.945-1.817-16.084-3.261-24.193-4.293a6 6 0 1 0 -1.514 11.9z"/><path d="m480.861 399.782-12.8-9.4c4-6.349 7.767-12.933 11.188-19.62a6 6 0 1 0 -10.684-5.465c-3.129 6.117-6.564 12.141-10.2 17.966l-15.322-11.243a6.57 6.57 0 0 0 -10.453 5.108l-1.19 40.823a6.567 6.567 0 0 0 8.653 6.416l39.007-13.058a6.57 6.57 0 0 0 1.8-11.527zm-37.241 10.737.656-22.7 21.036 15.436z"/></g><path d="m232.077 197.93a6.63 6.63 0 1 0 6.63 6.63 6.637 6.637 0 0 0 -6.63-6.63z" fill="#0635c9"/><path d="m267.606 221.552a6.63 6.63 0 1 0 -6.629-6.63 6.637 6.637 0 0 0 6.629 6.63z" fill="#0635c9"/><path d="m195.067 369.655a6.63 6.63 0 1 0 6.63 6.63 6.637 6.637 0 0 0 -6.63-6.63z" fill="#0635c9"/><path d="m253.575 377.766a6.63 6.63 0 1 0 6.63-6.63 6.637 6.637 0 0 0 -6.63 6.63z" fill="#0635c9"/><path d="m226.155 340.048a6.63 6.63 0 1 0 6.63 6.629 6.637 6.637 0 0 0 -6.63-6.629z" fill="#0635c9"/><circle cx="288.332" cy="346.677" fill="#0635c9" r="6.629"/><path d="m316.459 382.915a6.63 6.63 0 1 0 -6.629-6.63 6.638 6.638 0 0 0 6.629 6.63z" fill="#0635c9"/><path d="m257.244 323.7a6.63 6.63 0 1 0 -6.63-6.63 6.637 6.637 0 0 0 6.63 6.63z" fill="#0635c9"/><path d="m187 141h2a6 6 0 0 0 0-12h-2a6 6 0 0 0 0 12z" fill="#0635c9"/><path d="m209 141h62a6 6 0 0 0 0-12h-62a6 6 0 0 0 0 12z" fill="#0635c9"/><path d="m351.053 396.021v-39.4a95.113 95.113 0 0 0 -63.863-89.793 15.439 15.439 0 0 1 0-29.252 95.113 95.113 0 0 0 63.863-89.793v-31.804a23.243 23.243 0 0 0 -4.368-46.062h-181.37a23.243 23.243 0 0 0 -4.368 46.062v31.809a95.114 95.114 0 0 0 63.863 89.793 15.439 15.439 0 0 1 0 29.252 95.114 95.114 0 0 0 -63.863 89.793v39.4a23.243 23.243 0 0 0 4.368 46.062h181.37a23.243 23.243 0 0 0 4.368-46.062zm-178.106-248.233v-31.388h12.8a6 6 0 0 0 6-6 6 6 0 0 0 -6-6h-20.432a11.228 11.228 0 0 1 -11.193-11.374 11.418 11.418 0 0 1 11.539-11.107h181.024a11.227 11.227 0 0 1 11.193 11.371 11.419 11.419 0 0 1 -11.539 11.11h-120.595a6 6 0 0 0 -6 6 6 6 0 0 0 6 6h113.309v31.39a82.831 82.831 0 0 1 -4.553 27.068h-157a82.835 82.835 0 0 1 -4.553-27.07zm0 208.838a83.107 83.107 0 0 1 55.8-78.458 27.437 27.437 0 0 0 0-51.923 83.009 83.009 0 0 1 -46.011-39.389h146.53a83.009 83.009 0 0 1 -46.011 39.389 27.437 27.437 0 0 0 0 51.923 83.107 83.107 0 0 1 55.8 78.458v38.974h-166.108zm173.738 73.457h-181.37a11.241 11.241 0 0 1 0-22.481h181.37a11.241 11.241 0 0 1 0 22.481z" fill="#0635c9"/></svg>